<?xml version="1.0" encoding="utf-8"?>
<!-- Generator: Adobe Illustrator 26.3.1, SVG Export Plug-In . SVG Version: 6.00 Build 0)  -->
<svg version="1.1" id="Calque_1" xmlns="http://www.w3.org/2000/svg" xmlns:xlink="http://www.w3.org/1999/xlink" x="0px" y="0px"
	 viewBox="0 0 50 50" style="enable-background:new 0 0 50 50;" xml:space="preserve" width="25px" height="25px" fill="#FFFFFF">
<style type="text/css">
	.st0{fill:#FFFFFF;}
</style>
<g>
	<path class="st0" d="M20.1,0c-2.9,0-5.4,2.4-5.4,5.4v1.8H1.8c-1,0-1.8,0.8-1.8,1.8c0,1,0.8,1.8,1.8,1.8H5l2.1,31.5
		c0.3,4.2,3.5,7.8,7.9,7.8H35c4.3,0,7.6-3.6,7.9-7.8L45,10.7h3.2c1,0,1.8-0.8,1.8-1.8c0-1-0.8-1.8-1.8-1.8l-12.9,0V5.4
		c0-2.9-2.4-5.4-5.4-5.4L20.1,0z M20.1,3.6h9.8c1,0,1.8,0.8,1.8,1.8v1.8H18.3l0-1.8C18.3,4.3,19.1,3.6,20.1,3.6L20.1,3.6z M8.6,10.7
		h32.8L39.3,42c-0.2,2.6-1.9,4.4-4.3,4.4H15.1c-2.4,0-4.2-1.9-4.3-4.4L8.6,10.7z"/>
	<path class="st0" d="M19.7,17.8c-0.5,0-0.9,0.2-1.3,0.5c-0.3,0.3-0.5,0.8-0.5,1.3v17.8c0,0.5,0.2,0.9,0.5,1.3
		c0.3,0.3,0.8,0.5,1.3,0.5c0.5,0,0.9-0.2,1.3-0.5c0.3-0.3,0.5-0.8,0.5-1.3V19.6c0-0.5-0.2-0.9-0.5-1.3C20.6,18,20.1,17.8,19.7,17.8z
		"/>
	<path class="st0" d="M30.4,17.8c-0.5,0-0.9,0.2-1.3,0.5c-0.3,0.3-0.5,0.8-0.5,1.3v17.8c0,0.5,0.2,0.9,0.5,1.3
		c0.3,0.3,0.8,0.5,1.3,0.5c0.5,0,0.9-0.2,1.3-0.5c0.3-0.3,0.5-0.8,0.5-1.3V19.6c0-0.5-0.2-0.9-0.5-1.3C31.3,18,30.9,17.8,30.4,17.8z
		"/>
</g>
</svg>
