<svg xmlns="http://www.w3.org/2000/svg" width="25px" height="25px" fill="#FFFFFF" viewBox="0 0 548.8 548.8"><g id="Calque_2" data-name="Calque 2"><g id="Calque_1-2" data-name="Calque 1"><path d="M73.57,101.15A25.2,25.2,0,1,0,48.43,75.91,25.25,25.25,0,0,0,73.57,101.15Zm0-30.68A5.43,5.43,0,0,1,79.14,76c0,6.17-11,6.31-11,0a5.48,5.48,0,0,1,5.46-5.48ZM539,0H9.8A9.89,9.89,0,0,0,0,9.82V539a9.9,9.9,0,0,0,9.8,9.85H539A9.87,9.87,0,0,0,548.8,539V9.82A9.9,9.9,0,0,0,539,0Zm-9.85,19.7V132.24H19.66V19.7ZM19.66,529.11V151.9H529.11V529.11ZM273.56,101.9a26,26,0,1,0-25.95-26A25.92,25.92,0,0,0,273.56,101.9Zm0-32.22a6.27,6.27,0,0,1,6.29,6.26c0,6.92-12.53,6.87-12.53,0a6.21,6.21,0,0,1,6.24-6.26ZM173.22,101.9a26,26,0,1,0-26-26A25.94,25.94,0,0,0,173.22,101.9Zm0-32.22a6.29,6.29,0,0,1,6.31,6.26c0,6.92-12.57,6.87-12.57,0a6.24,6.24,0,0,1,6.26-6.26Z"/></g></g></svg>