<?xml version="1.0" encoding="UTF-8"?><svg id="Calque_2" xmlns="http://www.w3.org/2000/svg" width="25px" height="25px" fill="#FFFFFF" viewBox="0 0 700 700"><g id="Calque_1-2"><g><path d="M350,453.82l86.02-25.21L674.79,102.34c11.87-16.31,8.9-37.08-7.42-48.94l-29.66-22.24c-16.31-11.87-38.56-8.9-50.42,7.42l-237.29,323.31v91.94Z"/><path d="M668.86,218.02v403.39c0,26.69-22.24,48.94-48.94,48.94H78.6c-26.69-.01-48.94-22.25-48.94-48.95V78.6c0-26.69,22.24-48.94,48.94-48.94H486.44V0H78.6C35.6,0,0,35.6,0,78.6V621.4c0,43,35.6,78.6,78.6,78.6H621.4c43,0,78.6-35.6,78.6-78.6V218.01h-31.14Z"/></g></g></svg>